<?xml version="1.0" standalone="no"?>
<!DOCTYPE svg PUBLIC "-//W3C//DTD SVG 20010904//EN"
 "http://www.w3.org/TR/2001/REC-SVG-20010904/DTD/svg10.dtd">
<svg version="1.0" xmlns="http://www.w3.org/2000/svg"
 width="300.000000pt" height="300.000000pt" viewBox="0 0 300.000000 300.000000"
 preserveAspectRatio="xMidYMid meet">
<metadata>
Created by potrace 1.10, written by Peter Selinger 2001-2011
</metadata>
<g transform="translate(0.000000,300.000000) scale(0.100000,-0.100000)"
fill="#000000" stroke="none">
<path d="M1655 2077 c-11 -6 -32 -19 -47 -29 -28 -19 -136 -77 -241 -131 -34
-18 -66 -42 -72 -54 -5 -13 -12 -23 -16 -23 -3 0 -32 23 -64 51 -72 63 -128
99 -155 99 -22 0 -60 -53 -60 -84 0 -17 -34 -70 -67 -104 -54 -55 -83 -122
-34 -78 16 15 23 16 43 5 22 -12 21 -13 -22 -21 -25 -5 -79 -18 -121 -28 -41
-11 -86 -20 -100 -20 -33 0 -112 47 -189 114 -97 84 -180 137 -209 134 -45 -6
-46 -27 -6 -123 99 -242 99 -265 -9 -495 -26 -56 -33 -90 -18 -90 5 0 32 48
60 108 100 208 100 247 -6 490 -22 50 -38 92 -36 92 27 0 143 -82 239 -169 38
-34 89 -73 113 -84 39 -20 47 -20 114 -9 39 7 135 28 212 47 332 81 492 105
736 112 285 8 349 -2 745 -122 116 -34 225 -66 243 -70 18 -4 31 -12 30 -17
-2 -6 -58 -25 -123 -43 -66 -18 -144 -43 -173 -54 -29 -12 -62 -21 -73 -21
-12 0 -19 -5 -17 -12 7 -22 68 -21 127 1 104 39 261 79 268 68 11 -18 -28 -37
-172 -83 -211 -68 -313 -71 -382 -11 -46 40 -63 82 -63 154 -1 53 -2 56 -15
39 -40 -52 -26 -142 30 -204 32 -36 107 -72 148 -72 10 0 15 -4 12 -10 -8 -12
-55 -13 -55 -1 0 5 -18 11 -39 15 -91 14 -171 114 -171 213 0 65 10 88 58 130
l37 33 -27 0 c-36 0 -93 -51 -108 -96 -7 -19 -10 -55 -8 -80 l3 -44 -36 0
c-28 0 -38 5 -42 20 -6 22 -33 18 -53 -8 -12 -16 -38 -7 -29 9 4 5 -5 9 -19 9
-16 0 -26 -6 -26 -15 0 -8 -7 -15 -15 -15 -8 0 -15 7 -15 15 0 9 -9 15 -25 15
-16 0 -25 -6 -25 -15 0 -8 -7 -15 -15 -15 -8 0 -15 7 -15 15 0 10 -10 15 -28
15 l-29 0 9 -62 c13 -98 26 -128 53 -128 22 0 23 2 13 31 -6 16 -8 33 -4 36 9
10 35 -17 38 -40 3 -23 48 -39 48 -17 0 7 6 8 19 0 44 -23 206 0 206 30 0 9
-8 14 -20 13 -11 -1 -48 -5 -83 -9 -60 -7 -67 -5 -139 32 -74 37 -75 38 -47
47 16 4 89 5 162 1 132 -6 133 -6 147 -34 15 -29 79 -90 95 -90 6 0 10 -4 10
-8 0 -5 -68 -15 -150 -22 -282 -25 -632 7 -909 81 -64 17 -156 42 -205 55
-104 28 -165 30 -207 8 -17 -8 -64 -46 -105 -84 -67 -62 -117 -99 -229 -165
l-40 -24 33 -1 c33 0 86 29 152 81 193 156 198 159 260 159 50 0 60 -3 65 -20
4 -11 22 -40 41 -65 46 -61 64 -108 64 -171 0 -41 5 -59 21 -75 30 -30 31 -29
229 105 30 21 74 52 97 70 l41 34 84 -14 c45 -7 132 -17 191 -20 59 -4 110
-11 113 -16 3 -5 0 -15 -6 -23 -7 -8 -9 -22 -6 -31 4 -9 2 -22 -3 -28 -10 -13
-22 -75 -24 -133 -1 -26 -10 -50 -23 -65 -26 -27 -48 -68 -41 -74 6 -6 197
161 251 219 21 23 52 66 68 95 17 28 36 52 44 52 20 0 18 -5 -23 -79 -47 -86
-177 -216 -266 -267 -59 -33 -65 -39 -44 -42 41 -5 102 33 205 127 75 69 109
108 150 178 l54 89 121 18 c265 38 564 132 622 195 16 19 17 25 7 42 -7 11
-10 29 -7 40 4 13 0 28 -10 39 -19 21 -382 145 -555 189 -63 16 -163 35 -222
41 -107 13 -108 13 -135 49 -15 20 -55 68 -90 108 -45 50 -60 74 -52 79 13 8
60 -40 151 -154 27 -34 54 -59 59 -56 11 6 9 10 -48 91 -46 64 -127 143 -147
142 -6 0 -20 -5 -31 -12z m98 -172 c41 -49 47 -61 33 -63 -10 -2 -25 6 -34 20
-9 12 -45 54 -81 91 -53 55 -63 70 -51 78 16 10 30 -3 133 -126z m-87 18 c87
-103 62 -113 -33 -13 -78 83 -82 90 -54 90 13 0 44 -27 87 -77z m-67 -10 c83
-94 61 -106 -28 -15 -63 63 -70 78 -39 81 3 1 33 -29 67 -66z m-473 9 c34 -26
82 -63 107 -82 26 -19 46 -38 47 -42 1 -18 -25 -4 -97 53 -71 56 -120 85 -130
76 -2 -2 14 -15 34 -29 83 -55 145 -110 135 -120 -6 -6 -20 0 -38 18 -41 37
-126 94 -143 94 -9 0 -11 7 -7 23 3 12 6 30 6 40 0 27 21 20 86 -31z m415 -29
c37 -39 49 -58 39 -61 -17 -3 -133 102 -123 112 14 14 33 3 84 -51z m-56 -23
c38 -39 45 -50 30 -50 -19 0 -105 76 -105 92 0 20 30 4 75 -42z m-61 -9 c23
-24 34 -41 27 -45 -13 -8 -91 53 -91 72 0 23 26 12 64 -27z m-347 -8 c71 -49
95 -72 88 -83 -5 -8 -16 -4 -34 13 -42 38 -90 69 -103 65 -6 -2 12 -21 41 -41
28 -20 51 -41 51 -47 0 -15 -8 -12 -43 14 -18 14 -45 30 -61 36 -27 10 -28 12
-12 29 9 9 16 23 16 29 0 18 13 15 57 -15z m289 -10 c24 -18 31 -29 23 -34 -7
-4 -26 4 -46 19 -57 46 -36 60 23 15z m-298 -93 c6 -16 -24 -12 -38 5 -7 8
-18 15 -24 15 -20 0 -39 17 -32 29 8 12 88 -29 94 -49z m-56 -22 c-5 -5 -24
-2 -46 7 -30 13 -35 19 -26 30 9 11 17 10 46 -7 21 -12 32 -24 26 -30z m-142
-336 c0 -4 -10 -13 -21 -20 -16 -10 -24 -11 -33 -2 -8 8 -7 13 4 20 18 12 50
13 50 2z m50 -11 c0 -12 -54 -51 -69 -51 -18 0 -12 13 17 37 28 23 52 30 52
14z m38 -23 c-8 -23 -78 -72 -88 -62 -7 7 4 21 32 41 47 34 62 40 56 21z m52
-6 c0 -4 -22 -30 -49 -56 -37 -37 -54 -47 -68 -41 -16 6 -16 8 7 23 14 10 41
32 60 49 35 32 50 40 50 25z m40 -15 c0 -7 -31 -44 -70 -82 -58 -58 -70 -66
-76 -51 -5 13 -1 22 12 29 10 6 42 34 69 62 53 55 65 63 65 42z m41 -25 c-5
-9 -38 -48 -73 -87 -54 -60 -58 -67 -28 -48 19 11 60 51 90 88 30 37 56 62 58
56 2 -6 -6 -24 -17 -40 -34 -47 -24 -48 22 -3 28 27 46 39 55 33 19 -11 -48
-68 -177 -153 l-106 -69 -3 43 c-2 29 1 44 10 46 7 3 47 39 88 81 70 72 102
93 81 53z m729 -59 c0 -29 -150 -156 -166 -140 -14 14 10 46 46 62 22 10 53
33 70 51 28 31 50 43 50 27z m21 -52 c-36 -56 -99 -117 -160 -155 -50 -32 -49
-32 -44 -2 4 16 24 36 63 60 31 20 74 55 94 78 20 24 43 51 52 61 30 35 27 8
-5 -42z m-71 44 c0 -7 -85 -55 -97 -55 -21 0 -1 37 25 47 28 11 72 16 72 8z"/>
<path d="M340 1811 c0 -10 113 -87 161 -111 39 -19 -36 42 -102 83 -33 21 -59
33 -59 28z"/>
<path d="M366 1737 c5 -14 193 -111 201 -103 4 4 -187 116 -200 116 -3 0 -4
-6 -1 -13z"/>
<path d="M1642 1738 c-10 -13 -32 -115 -32 -152 0 -15 7 -21 25 -22 23 -2 25
1 25 45 0 27 6 69 14 94 13 44 13 47 -4 47 -10 0 -22 -6 -28 -12z"/>
<path d="M1715 1738 c-7 -22 -25 -131 -25 -153 0 -18 5 -21 24 -18 21 4 24 12
29 71 4 37 9 77 13 90 5 18 2 22 -15 22 -12 0 -24 -6 -26 -12z"/>
<path d="M1790 1724 c-6 -14 -13 -56 -16 -93 l-7 -69 25 5 c24 5 26 10 31 76
2 40 8 80 12 90 5 13 2 17 -14 17 -14 0 -25 -9 -31 -26z"/>
<path d="M1884 1742 c-14 -9 -34 -91 -34 -141 0 -36 3 -41 24 -41 22 0 23 4
29 78 3 42 7 83 9 91 4 16 -12 24 -28 13z"/>
<path d="M1493 1732 c-13 -8 -33 -94 -33 -141 0 -19 5 -27 19 -27 15 0 20 13
29 71 6 39 14 79 18 88 7 18 -11 23 -33 9z"/>
<path d="M1556 1723 c-7 -24 -26 -133 -26 -148 0 -8 10 -10 25 -7 20 3 25 10
25 36 0 17 6 55 14 84 13 51 13 52 -10 52 -13 0 -25 -7 -28 -17z"/>
<path d="M1418 1723 c-18 -5 -23 -21 -33 -104 -7 -54 -6 -56 17 -54 20 1 24 8
29 56 4 30 10 66 14 82 7 27 5 29 -27 20z"/>
<path d="M1337 1708 c-15 -12 -41 -127 -31 -137 3 -3 13 -5 23 -6 15 -1 20 8
25 54 3 31 9 66 12 79 7 25 -4 28 -29 10z"/>
<path d="M1268 1703 c-20 -5 -24 -15 -33 -86 -7 -53 -6 -57 13 -57 17 0 22 10
32 71 7 39 10 71 9 73 -2 1 -11 1 -21 -1z"/>
<path d="M1176 1682 c-2 -4 -7 -25 -11 -47 -4 -22 -9 -48 -12 -58 -4 -15 0
-18 18 -15 20 3 25 12 34 66 11 57 10 62 -6 62 -10 0 -20 -3 -23 -8z"/>
<path d="M390 1671 c0 -9 151 -71 173 -71 22 0 -8 18 -82 49 -78 33 -91 36
-91 22z"/>
<path d="M1118 1673 c-18 -5 -23 -15 -34 -76 -6 -37 -5 -39 17 -35 20 3 25 11
32 57 4 30 6 55 5 56 -2 1 -11 0 -20 -2z"/>
<path d="M1033 1652 c-7 -4 -15 -27 -19 -50 -6 -38 -5 -42 14 -42 15 0 22 9
27 33 4 17 9 40 11 50 6 18 -12 23 -33 9z"/>
<path d="M2287 1632 c-39 -43 -7 -122 48 -122 39 0 79 44 71 78 -14 56 -85 82
-119 44z m73 -38 c11 -12 11 -18 -2 -30 -18 -18 -48 -8 -48 15 0 33 28 42 50
15z"/>
<path d="M952 1628 c-7 -7 -12 -25 -12 -40 0 -41 35 -39 44 3 3 17 6 35 6 40
0 13 -24 11 -38 -3z"/>
<path d="M893 1619 c-30 -11 -33 -59 -4 -59 13 0 20 10 25 32 7 37 7 38 -21
27z"/>
<path d="M410 1611 c0 -10 33 -21 109 -36 46 -10 32 11 -17 24 -82 22 -92 23
-92 12z"/>
<path d="M793 1598 c-47 -15 -43 -38 7 -38 22 0 40 4 40 9 0 5 3 16 6 25 7 18
-5 19 -53 4z"/>
<path d="M645 1573 c-94 -12 -98 -31 -9 -49 79 -17 94 -17 94 1 0 9 -10 15
-27 16 -28 1 -28 1 -4 8 14 4 26 12 29 19 4 12 -18 13 -83 5z"/>
<path d="M437 1553 c-15 -15 -5 -23 27 -23 47 0 72 10 54 21 -16 10 -72 12
-81 2z"/>
<path d="M888 1532 c-27 -5 -23 -51 5 -61 26 -10 31 -2 20 36 -6 20 -13 28
-25 25z"/>
<path d="M940 1524 c0 -42 14 -74 33 -74 17 0 19 5 13 31 -3 17 -6 37 -6 43 0
6 -9 12 -20 12 -11 0 -20 -6 -20 -12z"/>
<path d="M1027 1532 c-16 -3 -17 -10 -12 -45 9 -52 10 -53 35 -60 19 -5 20 -2
14 31 -13 67 -18 78 -37 74z"/>
<path d="M1097 1532 c-15 -3 -16 -10 -11 -40 11 -61 22 -82 44 -82 17 0 18 3
10 26 -6 14 -10 40 -10 59 0 37 -6 44 -33 37z"/>
<path d="M1168 1533 c-13 -3 -15 -12 -11 -41 11 -68 19 -85 42 -94 21 -7 23
-6 17 14 -4 13 -9 45 -13 71 -6 51 -9 55 -35 50z"/>
<path d="M1306 1533 c-7 -7 3 -89 16 -130 7 -26 15 -33 34 -33 21 0 23 3 14
20 -6 10 -13 46 -16 79 -5 46 -11 60 -25 64 -10 3 -20 2 -23 0z"/>
<path d="M1384 1474 c9 -89 20 -114 50 -114 23 0 23 1 10 38 -7 20 -13 58 -14
83 0 42 -2 47 -26 52 l-27 5 7 -64z"/>
<path d="M1474 1532 c-19 -3 -20 -6 -12 -68 12 -88 23 -114 49 -114 18 0 20 4
13 33 -4 17 -12 59 -18 92 -10 52 -14 60 -32 57z"/>
<path d="M1530 1516 c1 -26 25 -155 31 -160 2 -2 15 -7 27 -11 22 -6 23 -5 16
17 -15 47 -24 94 -24 129 0 31 -4 37 -25 41 -20 4 -25 1 -25 -16z"/>
<path d="M760 1517 c0 -12 80 -41 88 -32 2 2 1 13 -3 24 -5 17 -15 21 -46 21
-25 0 -39 -5 -39 -13z"/>
<path d="M1230 1505 c0 -13 5 -47 11 -75 9 -43 14 -50 35 -50 20 0 22 3 15 23
-5 12 -12 46 -16 75 -6 42 -11 52 -26 52 -14 0 -19 -7 -19 -25z"/>
<path d="M480 1504 c-55 -15 -88 -34 -59 -34 29 0 119 31 119 40 0 6 -1 10 -2
9 -2 0 -28 -7 -58 -15z"/>
<path d="M475 1459 c-70 -30 -93 -44 -84 -54 6 -5 169 71 169 80 0 8 -11 5
-85 -26z"/>
<path d="M463 1409 c-51 -27 -93 -54 -93 -60 0 -11 142 62 183 93 41 32 3 18
-90 -33z"/>
<path d="M1803 1433 c26 -2 67 -2 90 0 23 2 2 3 -48 3 -49 0 -68 -1 -42 -3z"/>
<path d="M1845 1410 l-50 -7 45 -1 c25 0 54 3 65 8 23 10 12 10 -60 0z"/>
<path d="M425 1344 c-44 -30 -73 -54 -64 -54 17 0 87 44 134 84 51 43 14 28
-70 -30z"/>
<path d="M2042 1228 c-36 -36 8 -92 54 -67 29 15 31 40 6 62 -22 20 -43 22
-60 5z m45 -24 c9 -23 -11 -38 -26 -20 -13 16 -7 36 10 36 5 0 12 -7 16 -16z"/>
</g>
</svg>
